<?xml version="1.0" encoding="UTF-8" standalone="no"?>
<!DOCTYPE svg PUBLIC "-//W3C//DTD SVG 1.1//EN" "http://www.w3.org/Graphics/SVG/1.1/DTD/svg11.dtd">
<svg width="100%" height="100%" viewBox="0 0 101 101" version="1.1" xmlns="http://www.w3.org/2000/svg" xmlns:xlink="http://www.w3.org/1999/xlink" xml:space="preserve" xmlns:serif="http://www.serif.com/" style="fill-rule:evenodd;clip-rule:evenodd;">
    <g transform="matrix(1,0,0,1,-13,-13)">
        <path d="M128,16L128,112C128,120.831 120.831,128 112,128L16,128C7.169,128 0,120.831 0,112L0,16C0,7.169 7.169,0 16,0L112,0C120.831,0 128,7.169 128,16Z" style="fill:white;fill-opacity:0;"/>
    </g>
    <g transform="matrix(1,0,0,1,-13,-13)">
        <circle cx="64" cy="64" r="48" style="fill:rgb(34,34,34);"/>
    </g>
    <g transform="matrix(1,0,0,1,-13,-13)">
        <circle cx="64" cy="64" r="46" style="fill:rgb(0,160,198);"/>
    </g>
    <g transform="matrix(1,0,0,1,-13,-13)">
        <circle cx="64" cy="64" r="44" style="fill:none;stroke:rgb(34,34,34);stroke-opacity:0.5;stroke-width:0.3px;"/>
    </g>
    <g transform="matrix(1,0,0,1,-13,-13)">
        <circle cx="64" cy="64" r="42" style="fill:none;stroke:rgb(34,34,34);stroke-opacity:0.5;stroke-width:0.3px;"/>
    </g>
    <g transform="matrix(1,0,0,1,-13,-13)">
        <circle cx="64" cy="64" r="40" style="fill:none;stroke:rgb(34,34,34);stroke-opacity:0.5;stroke-width:0.3px;"/>
    </g>
    <g transform="matrix(1,0,0,1,-13,-13)">
        <circle cx="64" cy="64" r="38" style="fill:none;stroke:rgb(34,34,34);stroke-opacity:0.5;stroke-width:0.3px;"/>
    </g>
    <g transform="matrix(1,0,0,1,-13,-13)">
        <circle cx="64" cy="64" r="36" style="fill:none;stroke:rgb(34,34,34);stroke-opacity:0.5;stroke-width:0.3px;"/>
    </g>
    <g transform="matrix(1,0,0,1,-13,-13)">
        <circle cx="64" cy="64" r="34" style="fill:none;stroke:rgb(34,34,34);stroke-opacity:0.5;stroke-width:0.3px;"/>
    </g>
    <g transform="matrix(1,0,0,1,-13,-13)">
        <circle cx="64" cy="64" r="32" style="fill:none;stroke:rgb(34,34,34);stroke-opacity:0.5;stroke-width:0.3px;"/>
    </g>
    <g transform="matrix(1,0,0,1,-13,-13)">
        <circle cx="64" cy="64" r="30" style="fill:none;stroke:rgb(34,34,34);stroke-opacity:0.5;stroke-width:0.3px;"/>
    </g>
    <g transform="matrix(1,0,0,1,-13,-13)">
        <circle cx="64" cy="64" r="28" style="fill:none;stroke:rgb(34,34,34);stroke-opacity:0.5;stroke-width:0.3px;"/>
    </g>
    <g transform="matrix(1,0,0,1,-13,-13)">
        <circle cx="64" cy="64" r="26" style="fill:none;stroke:rgb(34,34,34);stroke-opacity:0.5;stroke-width:0.3px;"/>
    </g>
    <g transform="matrix(1,0,0,1,-13,-13)">
        <circle cx="64" cy="64" r="24" style="fill:none;stroke:rgb(34,34,34);stroke-opacity:0.5;stroke-width:0.3px;"/>
    </g>
    <g transform="matrix(1,0,0,1,-13,-13)">
        <circle cx="64" cy="64" r="22" style="fill:none;stroke:rgb(34,34,34);stroke-opacity:0.5;stroke-width:0.3px;"/>
    </g>
    <g transform="matrix(1,0,0,1,-13,-13)">
        <circle cx="64" cy="64" r="20" style="fill:none;stroke:rgb(34,34,34);stroke-opacity:0.5;stroke-width:0.3px;"/>
    </g>
    <g transform="matrix(1,0,0,1,-13,-13)">
        <circle cx="64" cy="64" r="18" style="fill:rgb(34,34,34);"/>
    </g>
    <g transform="matrix(1,0,0,1,-13,-13)">
        <circle cx="64" cy="64" r="16" style="fill:rgb(0,160,198);"/>
    </g>
    <g transform="matrix(1,0,0,1,-13,-13)">
        <circle cx="64" cy="64" r="14" style="fill:rgb(0,160,198);"/>
    </g>
    <g transform="matrix(1,0,0,1,-13,-13)">
        <circle cx="64" cy="64" r="12" style="fill:none;stroke:rgb(34,34,34);stroke-opacity:0.3;stroke-width:0.2px;"/>
    </g>
    <g transform="matrix(1,0,0,1,-13,-13)">
        <circle cx="64" cy="64" r="10" style="fill:none;stroke:rgb(34,34,34);stroke-opacity:0.3;stroke-width:0.2px;"/>
    </g>
    <g transform="matrix(1,0,0,1,-13,-13)">
        <circle cx="64" cy="64" r="8" style="fill:none;stroke:rgb(34,34,34);stroke-opacity:0.3;stroke-width:0.2px;"/>
    </g>
    <g transform="matrix(1,0,0,1,-13,-13)">
        <circle cx="64" cy="64" r="4" style="fill:rgb(34,34,34);"/>
    </g>
    <g transform="matrix(1,0,0,1,-13,-13)">
        <path d="M40,40C56,33.333 72,33.333 88,40" style="fill:none;fill-rule:nonzero;stroke:white;stroke-opacity:0.4;stroke-width:1px;"/>
    </g>
    <g transform="matrix(1,0,0,1,-13,-13)">
        <path d="M95,64C88.333,78 78.333,88.333 65,95" style="fill:none;fill-rule:nonzero;stroke:white;stroke-opacity:0.3;stroke-width:0.8px;"/>
    </g>
    <g transform="matrix(1,0,0,1,-13,-13)">
        <circle cx="64" cy="64" r="2"/>
    </g>
</svg>
